<svg xmlns="http://www.w3.org/2000/svg" width="36" height="36" viewBox="0 0 36 36">
    <g fill="none" fill-rule="evenodd">
        <path d="M0 0H36V36H0z"/>
        <path fill="#E85440" d="M30.64 28.74l-4.811-4.805c3.68-4.58 3.326-11.353-.872-15.515C22.761 6.226 19.824 5 16.69 5c-3.132 0-6.038 1.226-8.267 3.42C6.227 10.613 5 13.548 5 16.678c0 3.128 1.227 6.031 3.423 8.258 2.196 2.193 5.134 3.42 8.267 3.42 2.648 0 5.231-.904 7.299-2.548l4.81 4.805c.259.258.582.387.905.387.355 0 .678-.129.904-.387.517-.55.517-1.356.033-1.872zm-4.843-12.095c0 2.419-.936 4.71-2.647 6.418-1.712 1.71-4.004 2.645-6.425 2.645-2.422 0-4.715-.935-6.426-2.645-1.711-1.71-2.647-3.999-2.647-6.418 0-2.42.936-4.71 2.647-6.418 1.712-1.71 4.004-2.645 6.426-2.645 2.421 0 4.715.935 6.425 2.645s2.647 3.999 2.647 6.418z"/>
    </g>
</svg>
