<svg xmlns="http://www.w3.org/2000/svg" xmlns:xlink="http://www.w3.org/1999/xlink" width="36" height="36" viewBox="0 0 36 36">
    <defs>
        <path id="prefix__a" d="M14.868.058C6.65.093 0 6.765 0 14.99c0 8.247 6.686 14.933 14.932 14.933 8.247 0 14.933-6.686 14.933-14.933 0-8.225-6.65-14.897-14.868-14.932"/>
        <path id="prefix__c" d="M14.868.058C6.65.093 0 6.765 0 14.99c0 8.247 6.686 14.933 14.932 14.933 8.247 0 14.933-6.686 14.933-14.933 0-8.225-6.65-14.897-14.868-14.932"/>
    </defs>
    <g fill="none" fill-rule="evenodd">
        <path d="M0 0H36V36H0z"/>
        <g transform="translate(3 2)">
            <mask id="prefix__b" fill="#fff">
                <use xlink:href="#prefix__a"/>
            </mask>
            <path fill="#ECC19C" d="M20.112 24.494h-.003c-.324-.245-.663-.464-1.02-.66-.01-.006-.018-.012-.03-.015-1.69-.933-2.835-2.732-2.835-4.8l-2.559-.013c0 2.075-1.154 3.883-2.858 4.813 0 0-.003 0-.007.003-.36.196-.705.417-1.032.66-2.12 1.577-3.492 4.1-3.492 6.947H23.59c0-2.841-1.366-5.357-3.477-6.935" mask="url(#prefix__b)"/>
            <mask id="prefix__d" fill="#fff">
                <use xlink:href="#prefix__c"/>
            </mask>
            <path fill="#29A010" d="M23.589 31.428H6.276c0-2.847 1.372-5.37 3.492-6.947.327-.243.672-.464 1.032-.66.003-.004.006-.004.006-.004.279-.154.545-.33.79-.53.849.87 2.033 1.409 3.344 1.409 1.308 0 2.49-.54 3.337-1.406.242.2.506.376.781.527.012.003.022.01.03.016.358.196.697.414 1.021.66h.003c2.11 1.577 3.477 4.094 3.477 6.935" mask="url(#prefix__d)"/>
            <g fill="#ECC19C">
                <path d="M.034.072v6.8c0 4.6 4.038 8.328 6.645 8.328 2.606 0 6.644-3.729 6.644-8.328v-6.8H.034z" transform="translate(8.254 6.032)"/>
            </g>
            <g fill="#494846">
                <path d="M14.145 3.107C12.697 1.293 10.499.134 8.04.134 3.67.134.134 3.781.134 8.277c0 2.387.994 4.533 2.583 6.021-.41-1.027-.638-2.178-.638-3.393 0-1.954.594-3.743 1.58-5.119 1.047.465 2.744.634 4.605.377 1.846-.252 3.418-.862 4.304-1.588 1.617 1.428 2.668 3.73 2.668 6.33 0 1.331-.273 2.583-.762 3.682 1.56-.646 2.707-2.948 2.707-5.688 0-2.932-1.315-5.351-3.036-5.792" transform="translate(6.35 1.746)"/>
            </g>
        </g>
    </g>
</svg>
