<svg xmlns="http://www.w3.org/2000/svg" xmlns:xlink="http://www.w3.org/1999/xlink" version="1.1" width="36" height="36" viewBox="0 0 512 512"><path pid="0" d="M472.426 64.468l-213.333-64a10.248 10.248 0 00-6.123 0l-213.333 64a10.668 10.668 0 00-7.616 10.219v234.667c0 94.315 143.829 178.219 220.843 202.197 2.083.655 4.317.655 6.4 0 76.928-23.979 220.757-107.883 220.757-202.197V74.687a10.668 10.668 0 00-7.595-10.219z" fill="#2196f3"></path><circle pid="1" cx="256.021" cy="245.354" r="117.333" fill="#1976d2"></circle><path pid="2" d="M234.688 298.687a10.663 10.663 0 01-7.552-3.115l-42.667-42.667c-4.092-4.237-3.975-10.99.262-15.083 4.134-3.992 10.687-3.992 14.82 0l35.136 35.115 77.781-77.781c4.092-4.237 10.845-4.355 15.083-.262 4.237 4.092 4.355 10.845.262 15.083-.086.089-.173.176-.262.262l-85.333 85.333a10.668 10.668 0 01-7.53 3.115z" fill="#fafafa"></path></svg>