<svg xmlns="http://www.w3.org/2000/svg" width="30" height="29" viewBox="0 0 30 29">
    <g fill="#FFF" fill-rule="evenodd">
        <path d="M.773.155h4.55c.426 0 .773.427.773.773v4.487c0 .427-.347.773-.774.773H.773C.346 6.188 0 5.761 0 5.415V.928C0 .501.346.155.773.155zM8.757.155h4.549c.427 0 .773.427.773.773v4.487c0 .427-.346.773-.773.773H8.757c-.427 0-.773-.427-.773-.773V.928c0-.427.346-.773.773-.773zM16.678.155h4.549c.427 0 .773.427.773.773v4.487c0 .427-.346.773-.773.773h-4.549c-.427 0-.773-.427-.773-.773V.928c0-.427.346-.773.773-.773zM.773 7.983h4.55c.426 0 .773.427.773.773v4.487c0 .427-.347.773-.774.773H.773c-.427 0-.773-.427-.773-.773V8.756c0-.427.346-.773.773-.773zM8.757 7.983h4.549c.427 0 .773.427.773.773v4.487c0 .427-.346.773-.773.773H8.757c-.427 0-.773-.427-.773-.773V8.756c0-.427.346-.773.773-.773zM16.678 7.983h4.549c.427 0 .773.427.773.773v4.487c0 .427-.346.773-.773.773h-4.549c-.427 0-.773-.427-.773-.773V8.756c0-.427.346-.773.773-.773zM.773 15.843h4.55c.426 0 .773.427.773.773v4.487c0 .427-.347.773-.774.773H.773c-.427 0-.773-.427-.773-.773v-4.487c0-.427.346-.773.773-.773zM8.757 15.843h4.549c.427 0 .773.427.773.773v4.487c0 .427-.346.773-.773.773H8.757c-.427 0-.773-.427-.773-.773v-4.487c0-.427.346-.773.773-.773zM16.678 15.843h4.549c.427 0 .773.427.773.773v4.487c0 .427-.346.773-.773.773h-4.549c-.427 0-.773-.427-.773-.773v-4.487c0-.427.346-.773.773-.773z" transform="translate(4 4)"/>
    </g>
</svg>
