<svg xmlns="http://www.w3.org/2000/svg" xmlns:xlink="http://www.w3.org/1999/xlink" width="30" height="30" viewBox="0 0 30 30">
    <defs>
        <path id="prefix__a" d="M0.054 0.098L23.903 0.098 23.903 2.106 0.054 2.106z"/>
        <path id="prefix__c" d="M0 15.598L24.33 15.598 24.33 0.026 0 0.026z"/>
    </defs>
    <g fill="none" fill-rule="evenodd">
        <path d="M0 0H30V30H0z"/>
        <g>
            <path fill="#D67F3D" d="M0.067 11.611L5.238 11.611 5.238 0.107 0.067 0.107z" transform="translate(2.5 6.667)"/>
            <path fill="#EADDD1" d="M2.001 3.558L3.629 3.558 3.629 0.107 2.001 0.107z" transform="translate(2.5 6.667)"/>
            <path fill="#F5A653" d="M5.238 11.611L14.775 11.611 14.775 0.107 5.238 0.107z" transform="translate(2.5 6.667)"/>
            <path fill="#FBDBC8" d="M14.402 11.16L14.402 0.558 5.612 0.558z" transform="translate(2.5 6.667)"/>
            <path fill="#ECECEB" d="M1.868 3.43L3.438 3.43 3.438 0.107 1.868 0.107z" transform="translate(2.5 6.667)"/>
            <path fill="#70441C" d="M5.925 8.572L9.444 8.572 9.444 8.026 5.925 8.026zM5.925 9.608L8.307 9.608 8.307 9.063 5.925 9.063z" transform="translate(2.5 6.667)"/>
            <path stroke="#70441C" stroke-linecap="round" stroke-linejoin="round" stroke-width=".5" d="M6.042 10.78L6.885 10.78 6.885 9.936 6.042 9.936zM7.338 10.78L8.18 10.78 8.18 9.936 7.338 9.936z" transform="translate(2.5 6.667)"/>
            <path fill="#797978" d="M14.775 11.611L15.618 11.611 15.618 2.149 14.775 2.149z" transform="translate(2.5 6.667)"/>
            <g transform="translate(2.5 6.667) translate(0 .081)">
                <g transform="translate(.427 11.432)">
                    <mask id="prefix__b" fill="#fff">
                        <use xlink:href="#prefix__a"/>
                    </mask>
                    <path fill="#B2B2B1" d="M23.903 2.106H.054V.098h23.287c.482 0 .562.321.562.682v1.326z" mask="url(#prefix__b)"/>
                </g>
                <mask id="prefix__d" fill="#fff">
                    <use xlink:href="#prefix__c"/>
                </mask>
                <path fill="#B2B2B1" d="M0 13.537L1.285 13.537 1.285 12.533 0 12.533z" mask="url(#prefix__d)"/>
                <path fill="#E4251D" d="M19.733 1.825c-.254-.323-.462-.373-.943-.373h-3.172V11.53h8.23V7.414c0-.403-.082-.604-.225-.78-.816-1.006-3.587-4.425-3.89-4.81" mask="url(#prefix__d)"/>
                <path fill="#E63B25" d="M19.502 2.147c-.19-.234-.346-.27-.708-.27h-2.38l.047 7.87 6.741.007V6.77c0-.293-.062-.438-.168-.566-.613-.73-3.304-3.777-3.532-4.056" mask="url(#prefix__d)"/>
                <path fill="#61B9D8" d="M22.138 5.73c-.64-.788-2.49-3.07-2.726-3.37-.198-.253-.361-.292-.738-.292h-1.903v4.664h4.374c.321 0 1.104-.865.993-1.002" mask="url(#prefix__d)"/>
                <path fill="#4C8FA6" d="M21.336 6.578h-4.374v-4.51h-.191v4.664h4.374c.123 0 .312-.126.493-.289-.115.082-.223.135-.302.135" mask="url(#prefix__d)"/>
                <path fill="#352E35" d="M18.146 7.798c0 .186-.169.337-.377.337h-.93c-.209 0-.378-.15-.378-.337 0-.186.169-.337.377-.337h.93c.21 0 .378.15.378.337" mask="url(#prefix__d)"/>
                <path fill="#FD0" d="M22.296 11.151L23.849 11.151 23.849 9.893 22.858 9.893z" mask="url(#prefix__d)"/>
                <path fill="#F8B133" d="M23.638 10.291c0 .136-.11.245-.244.245-.135 0-.244-.11-.244-.245 0-.134.109-.243.244-.243s.244.109.244.243" mask="url(#prefix__d)"/>
                <path fill="#9C9C9C" d="M1.967 13.564c0-1.442 1.169-2.61 2.61-2.61 1.441 0 2.61 1.168 2.61 2.61h-5.22z" mask="url(#prefix__d)"/>
                <path fill="#352E35" d="M6.612 13.564c0 1.123-.911 2.034-2.035 2.034s-2.035-.91-2.035-2.034c0-1.124.911-2.035 2.035-2.035s2.035.91 2.035 2.035" mask="url(#prefix__d)"/>
                <path fill="#C5C5C5" d="M5.583 13.564c0 .555-.45 1.005-1.006 1.005s-1.006-.45-1.006-1.005c0-.556.45-1.006 1.006-1.006s1.006.45 1.006 1.006" mask="url(#prefix__d)"/>
                <path fill="#9C9C9C" d="M17.899 13.564c0-1.442 1.168-2.61 2.61-2.61 1.44 0 2.61 1.168 2.61 2.61h-5.22z" mask="url(#prefix__d)"/>
                <path fill="#352E35" d="M22.543 13.564c0 1.123-.91 2.034-2.035 2.034-1.123 0-2.035-.91-2.035-2.034 0-1.124.912-2.035 2.035-2.035 1.124 0 2.035.91 2.035 2.035" mask="url(#prefix__d)"/>
                <path fill="#C5C5C5" d="M21.514 13.564c0 .555-.45 1.005-1.006 1.005-.555 0-1.006-.45-1.006-1.005 0-.556.45-1.006 1.006-1.006s1.006.45 1.006 1.006" mask="url(#prefix__d)"/>
                <path fill="#BCBCBB" d="M23.394 9.747L23.849 9.747 23.849 8.429 23.394 8.429z" mask="url(#prefix__d)"/>
                <path fill="#D9D9D9" d="M23.394 8.557L23.948 8.557 23.948 8.43 23.394 8.43zM23.394 8.799L23.948 8.799 23.948 8.672 23.394 8.672zM23.394 9.042L23.948 9.042 23.948 8.915 23.394 8.915zM23.394 9.285L23.948 9.285 23.948 9.157 23.394 9.157zM23.394 9.527L23.948 9.527 23.948 9.4 23.394 9.4zM23.394 9.77L23.948 9.77 23.948 9.643 23.394 9.643z" mask="url(#prefix__d)"/>
            </g>
        </g>
    </g>
</svg>
