<svg xmlns="http://www.w3.org/2000/svg" width="36" height="36" viewBox="0 0 36 36">
    <g fill="none" fill-rule="evenodd">
        <path d="M0 0H36V36H0z"/>
        <g>
            <path fill="#FF5722" d="M20.625 6.094L16.406 10.313 12.188 6.094 15 6.094 15 0.469 17.813 0.469 17.813 6.094z" transform="translate(3 5)"/>
            <path fill="#009688" d="M10.781 18.75c-.772 0-1.406-.634-1.406-1.406v-7.032H6.562v7.032c0 2.322 1.897 4.218 4.22 4.218H24.14V18.75H10.78z" transform="translate(3 5)"/>
            <path fill="#009688" d="M26.25 3.281l-4.219 9.423c-.139.282-.351.421-.633.421H10.92c-.281 0-.563-.213-.633-.49L6.845 2.365C6.424 1.241 5.369.47 4.17.47H1.64V3.28h2.53l3.867 11.671c.213.565.703.986 1.337.986h13.36c.564 0 1.054-.352 1.267-.842L29.345 3.28H26.25z" transform="translate(3 5)"/>
            <path fill="#00695C" d="M3.047 1.875c0 1.875-2.813 1.875-2.813 0s2.813-1.875 2.813 0" transform="translate(3 5)"/>
            <path fill="#37474F" d="M24.14 23.672c0 2.812-4.218 2.812-4.218 0 0-2.813 4.219-2.813 4.219 0M13.594 23.672c0 2.812-4.219 2.812-4.219 0 0-2.813 4.219-2.813 4.219 0" transform="translate(3 5)"/>
            <path fill="#607D8B" d="M22.734 23.672c0 .937-1.406.937-1.406 0 0-.938 1.406-.938 1.406 0M12.188 23.672c0 .937-1.407.937-1.407 0 0-.938 1.406-.938 1.406 0" transform="translate(3 5)"/>
        </g>
    </g>
</svg>
