<svg xmlns="http://www.w3.org/2000/svg" xmlns:xlink="http://www.w3.org/1999/xlink" version="1.1" width="36" height="36" viewBox="0 0 512 512"><path pid="0" d="M376.325 87.04c0-16.896-13.824-30.72-30.72-30.72h-230.41c-16.896 0-30.72 13.824-30.72 30.72v286.72c0 16.896 13.824 30.72 30.72 30.72H289.26l87.04-81.92.025-235.52z" fill="#dadee0"></path><path pid="1" d="M84.475 87.04c0-16.896 13.824-30.72 30.72-30.72h204.81v-25.6c0-16.896-13.824-30.72-30.72-30.72H58.875c-16.896 0-30.72 13.824-30.72 30.72v286.72c0 16.896 13.824 30.72 30.72 30.72h25.6V87.04z" fill="#1bb7ea"></path><path pid="2" d="M319.985 322.56h56.32l-87.04 81.92v-51.2c0-16.896 13.824-30.72 30.72-30.72z" fill="#f2f2f2"></path><g fill="#1f4254"><path pid="3" d="M161.275 192h138.24a7.68 7.68 0 007.68-7.68 7.677 7.677 0 00-7.68-7.68h-138.24a7.677 7.677 0 00-7.68 7.68 7.68 7.68 0 007.68 7.68M161.275 140.8h138.24a7.68 7.68 0 007.68-7.68 7.677 7.677 0 00-7.68-7.68h-138.24a7.677 7.677 0 00-7.68 7.68 7.68 7.68 0 007.68 7.68M161.275 243.2h138.24a7.68 7.68 0 007.68-7.68 7.677 7.677 0 00-7.68-7.68h-138.24a7.677 7.677 0 00-7.68 7.68 7.68 7.68 0 007.68 7.68M161.275 294.4h76.8a7.68 7.68 0 007.68-7.68 7.676 7.676 0 00-7.68-7.68h-76.8a7.676 7.676 0 00-7.68 7.68 7.68 7.68 0 007.68 7.68"></path></g></svg>