<svg xmlns="http://www.w3.org/2000/svg" width="30" height="30" viewBox="0 0 30 30">
    <g fill="#FFF" fill-rule="evenodd">
        <path d="M3.6 0H1.09C.489 0 0 .488 0 1.09c0 .604.488 1.092 1.09 1.092H3.6l3.587 9.865c-1.662.278-2.84 1.773-2.724 3.453.116 1.68 1.489 2.999 3.173 3.045h13.091c.603 0 1.091-.487 1.091-1.09 0-.603-.488-1.091-1.09-1.091H7.635c-.603 0-1.09-.488-1.09-1.091s.487-1.091 1.09-1.091h9.603c.925-.003 1.828-.287 2.59-.814.76-.526 1.342-1.272 1.67-2.137l2.433-6.486c.125-.334.078-.71-.126-1.003-.204-.294-.539-.47-.897-.47H6.545c-.073 0-.146.008-.218.022L5.65 1.437C5.337.574 4.518 0 3.6 0zm17.727 5.455l-1.87 5.01c-.35.922-1.232 1.533-2.218 1.535H9.491l-2.38-6.545h14.216zM5.454 22.91c0 1.323.797 2.517 2.02 3.023 1.223.507 2.632.226 3.567-.71.937-.935 1.217-2.344.71-3.567-.506-1.223-1.7-2.02-3.024-2.02-1.808 0-3.273 1.465-3.273 3.273zm4.364 0c0 .44-.265.839-.673 1.007-.408.17-.877.076-1.19-.237-.311-.312-.405-.78-.236-1.189.169-.408.567-.673 1.008-.673.29 0 .567.115.772.32.204.204.32.481.32.771zM18.545 19.636c-1.324 0-2.517.797-3.023 2.02-.507 1.223-.227 2.632.71 3.567.935.936 2.343 1.217 3.566.71 1.223-.507 2.02-1.7 2.02-3.024 0-1.808-1.465-3.273-3.273-3.273zm0 4.364c-.44 0-.839-.265-1.007-.673-.17-.408-.076-.877.236-1.19.312-.311.781-.405 1.19-.236.407.169.672.567.672 1.008 0 .29-.115.567-.32.771-.204.205-.48.32-.77.32z" transform="translate(3 2)"/>
    </g>
</svg>
