<svg xmlns="http://www.w3.org/2000/svg" width="30" height="30" viewBox="0 0 30 30">
    <path fill="#C7BFBF" fill-rule="evenodd" d="M5.714 25C3.672 25 2 23.38 2 21.4V10.6C2 8.62 3.672 7 5.714 7H8.8l1.006-2.428c.139-.343.48-.57.86-.572h8.667c.381.001.722.229.861.572L21.2 7h3.086C26.328 7 28 8.62 28 10.6v10.8c0 1.98-1.672 3.6-3.714 3.6H5.714zm0-1.8h18.572c1.044 0 1.857-.787 1.857-1.8V10.6c0-1.012-.813-1.8-1.857-1.8H20.57c-.378 0-.719-.223-.86-.563L18.705 5.8h-7.41L10.29 8.238c-.141.34-.482.562-.86.562H5.713c-1.044 0-1.857.787-1.857 1.8v10.8c0 1.013.813 1.8 1.857 1.8zM15 21.7c-3.237 0-5.881-2.563-5.881-5.7s2.644-5.7 5.881-5.7 5.881 2.563 5.881 5.7-2.644 5.7-5.881 5.7zm0-1.8c2.233 0 4.024-1.736 4.024-3.9 0-2.164-1.79-3.9-4.024-3.9-2.233 0-4.024 1.736-4.024 3.9 0 2.164 1.79 3.9 4.024 3.9z"/>
</svg>
