<svg data-v-36540b0e="" version="1.1" viewBox="0 0 24 24" class="svg-icon svg-fill" style="width: 24px; height: 24px;"><g fill="#607d8b"><path pid="0" d="M22.272 10.272a.751.751 0 00-.751.75c0 4.484-3.122 8.246-7.304 9.249v-.935a.75.75 0 00-1.28-.53l-1.957 1.956a.75.75 0 000 1.061l1.957 1.957c.469.469 1.28.141 1.28-.53v-1.431c5.018-1.029 8.804-5.479 8.804-10.797a.749.749 0 00-.749-.75zM8.824 19.988a9.506 9.506 0 01-6.346-8.966c0-1.143.206-2.251.593-3.294l.899.519c.575.334 1.272-.196 1.1-.844l-.76-2.834a.752.752 0 00-.919-.53l-2.836.759c-.644.173-.757 1.042-.18 1.374l1.379.796a11.009 11.009 0 006.575 14.437.75.75 0 10.495-1.417zM23.056 4.917l-1.614.432C19.48 2.105 15.902 0 12 0 9.488 0 7.134.825 5.191 2.387a.749.749 0 10.94 1.168A9.275 9.275 0 0112 1.5c3.223 0 6.185 1.664 7.921 4.257l-.874.234c-.644.173-.757 1.04-.181 1.374l2.541 1.468a.751.751 0 001.025-.275L23.9 6.017a.75.75 0 00-.844-1.1z"></path></g><path pid="1" d="M12 5c-3.309 0-6 2.691-6 6s2.691 6 6 6 6-2.691 6-6-2.691-6-6-6z" fill="#4caf50"></path><path pid="2" d="M11.875 10.25h.25c1.034 0 1.875.841 1.875 1.875 0 .813-.524 1.501-1.25 1.76v.365a.75.75 0 01-1.5 0V14h-.5a.75.75 0 010-1.5h1.375a.375.375 0 000-.75h-.25A1.877 1.877 0 0110 9.875c0-.814.524-1.501 1.25-1.76V7.75a.75.75 0 011.5 0V8h.5a.75.75 0 010 1.5h-1.375a.375.375 0 000 .75z" fill="#fff"></path><path pid="3" d="M12 19.744l-1.02 1.019a.75.75 0 000 1.061l1.02 1.02zM3.585 4.015a.811.811 0 00-.194.024l-2.836.759c-.644.173-.757 1.042-.18 1.374l1.379.796a11.009 11.009 0 006.575 14.437.75.75 0 00.496-1.416 9.506 9.506 0 01-6.346-8.966c0-1.143.206-2.251.593-3.294l.898.518a.74.74 0 00.374.103.754.754 0 00.726-.947l-.76-2.834a.747.747 0 00-.725-.554zM12 0C9.488 0 7.134.825 5.191 2.387a.749.749 0 10.939 1.169A9.275 9.275 0 0112 1.5z" fill="#546d79"></path><path pid="4" d="M12 9.5h-.125a.375.375 0 000 .75H12zM12 5c-3.309 0-6 2.691-6 6s2.691 6 6 6v-2a.75.75 0 01-.75-.75V14h-.5a.75.75 0 010-1.5H12v-.75h-.125A1.877 1.877 0 0110 9.875c0-.814.524-1.501 1.25-1.76V7.75A.75.75 0 0112 7z" fill="#429846"></path><path pid="5" d="M12 12.5h-1.25a.75.75 0 000 1.5h.5v.25c0 .414.336.75.75.75zM12 7a.75.75 0 00-.75.75v.365A1.873 1.873 0 0010 9.875c0 1.034.841 1.875 1.875 1.875H12v-1.5h-.125a.375.375 0 010-.75H12z" fill="#dedede"></path></svg>