<svg xmlns="http://www.w3.org/2000/svg" width="54" height="54" viewBox="0 0 54 54">
    <g fill="none" fill-rule="evenodd">
        <rect width="54" height="54" fill="#FFF" rx="16"/>
        <path fill="#FFF" d="M15.977 13L16.536 14.126 18.47 14.75 19.732 14.2 19.732 21.858 17.649 22.457 14.514 21.629 13 17.729 14.727 13.444z"/>
        <path fill="#000" d="M14.098 23.023c-.235.687-.04 1.442.499 1.944l4.772 4.484-1.126 6.331c-.128.712.175 1.432.781 1.856.606.425 1.41.48 2.074.143L27 34.794l5.903 2.987c.663.337 1.467.282 2.074-.143.606-.424.909-1.144.78-1.856l-1.125-6.331 4.775-4.484c.535-.504.727-1.255.498-1.941-.23-.685-.843-1.187-1.581-1.295l-6.607-.923-2.95-5.76C28.432 14.406 27.75 14 27.004 14c-.744 0-1.426.406-1.76 1.048l-2.961 5.76-6.599.923c-.743.102-1.358.604-1.587 1.292zm9.061-.227c.352-.05.655-.264.813-.571l3.029-5.906 3.026 5.906c.156.307.46.52.813.57l6.772.948-4.902 4.601c-.255.24-.371.586-.31.924l1.156 6.483-6.052-3.064c-.316-.157-.69-.157-1.007 0l-6.052 3.064 1.157-6.488c.058-.336-.059-.68-.311-.918l-4.895-4.601 6.763-.948z"/>
    </g>
</svg>
