<svg xmlns="http://www.w3.org/2000/svg" width="54" height="54" viewBox="0 0 54 54">
    <g fill="none" fill-rule="evenodd">
        <rect width="54" height="54" fill="#FFF" rx="16"/>
        <path fill="#FFF" d="M15.977 13L16.536 14.126 18.47 14.75 19.732 14.2 19.732 21.858 17.649 22.457 14.514 21.629 13 17.729 14.727 13.444z"/>
        <g fill="#000">
            <path d="M16.266.005l.09.018L30 3.905l-.351 1.2L16.235 1.29 9.923 4.242c-.254.16-.407.44-.404.738 0 .309.165.595.434.752.235.138.52.16.772.065l.106-.048 5.124-2.73c.186-.099.406-.1.59-.007l.089.054 2.78 2.015-.753 1.007-2.455-1.781-1.307.697c.478.574.859 1.222 1.128 1.917.104-.019.209-.032.314-.04l.158-.007h.634c.753 0 1.43.437 1.736 1.103l.06.147h3.281v1.25h-3.807c-.17 0-.33-.066-.449-.183-.119-.117-.187-.276-.187-.442 0-.166-.066-.324-.185-.441-.096-.094-.218-.156-.35-.177l-.099-.007H16.5c-1.052 0-1.904.84-1.904 1.875 0 .314.234.574.54.619l.094.006h4.47c.143 0 .281.048.393.135l.079.072 2.095 2.293h7.559v1.25h-7.841c-.145 0-.283-.047-.394-.134l-.078-.073-2.094-2.293H16.02c-.9 2.271-2.952 3.904-5.396 4.29-2.353.37-4.729-.468-6.307-2.21l-.179-.205H1.904c-.32 0-.582.231-.628.533l-.006.093v3.124h22.844v-1.875h1.268v5h.635c1.001 0 1.822.762 1.898 1.73l.006.146V25c0 .986-.774 1.794-1.755 1.869l-.149.005h-.635v1.25c0 .988-.773 1.796-1.755 1.87l-.149.006H1.904C.902 30 .082 29.239.006 28.272L0 28.125v-13.75c0-.987.773-1.795 1.755-1.87l.149-.005h1.405c-1.111-2.13-1.015-4.676.253-6.719C4.831 3.738 7.088 2.495 9.52 2.499c.224.002.449.015.672.038l.333.042L15.908.061c.112-.053.236-.071.358-.056zm7.848 18.744H1.269v9.376c0 .314.234.573.54.618l.095.006h21.574c.17 0 .33-.065.449-.182.095-.094.157-.215.179-.344l.008-.098v-1.25H20.94c-1.001 0-1.822-.762-1.898-1.73L19.037 25v-2.5c0-.986.772-1.794 1.755-1.869l.148-.005h3.174v-1.876zm-16.5 7.5V27.5H2.539v-1.25h5.077zm18.403-4.374H20.94c-.319 0-.582.23-.627.532l-.007.093V25c0 .314.234.574.54.618l.094.007h5.077c.168 0 .33-.067.449-.184.095-.094.157-.214.178-.343l.007-.099v-2.5c0-.165-.066-.324-.185-.441-.12-.117-.28-.183-.449-.183zM5.076 23.75V25H2.538v-1.25h2.538zm17.768-.626v1.25h-1.27v-1.25h1.27zM8.6 3.828c-1.907.305-3.527 1.538-4.306 3.277-.78 1.74-.616 3.75.439 5.343 1.055 1.594 2.855 2.554 4.786 2.551 1.082.004 2.142-.298 3.056-.867.914-.57 1.643-1.384 2.103-2.347-.8-.238-1.349-.963-1.351-1.786.002-1.082.574-2.085 1.51-2.65-.215-.548-.516-1.057-.891-1.512l-.193-.223-1.696.904c-.44.196-.863.376-1.268.544-.126.027-.254.042-.38.047-.439-.002-.862-.134-1.217-.373-.123-.099-.238-.2-.347-.292-.319-.266-.506-.638-.562-1.114-.021-.116-.032-.232-.033-.35.001-.409.124-.808.35-1.152z" transform="translate(12 11)"/>
            <path d="M11.185 9.723c.285-.29.461-.706.461-1.149 0-.914-.72-1.647-1.616-1.647h-.354v-.526C9.677 6.18 9.5 6 9.284 6c-.218 0-.394.18-.394.401v.526H7.435c-.218 0-.394.18-.394.401L7 12.658c0 .11.04.207.109.29.068.07.177.125.285.125H8.89v.526c0 .222.176.401.393.401.218 0 .394-.18.394-.401v-.54h.544c.978 0 1.78-.816 1.78-1.813 0-.637-.326-1.19-.815-1.523zm-2.367 2.585h-1.06l.013-2h1.047v2zm-.013-2.923H7.758l.013-1.693h1.047v1.693h-.013zm.77-1.693h.363c.473 0 .85.375.85.846 0 .472-.376.847-.85.847h-.362V7.692zm.537 4.616h-.536v-2s.496.014.536.014c.536 0 .979.449.979.993s-.443.993-.979.993z" transform="translate(12 11)"/>
        </g>
    </g>
</svg>
