<svg xmlns="http://www.w3.org/2000/svg" width="54" height="54" viewBox="0 0 54 54">
    <g fill="none" fill-rule="evenodd">
        <rect width="54" height="54" fill="#FFF" rx="16"/>
        <path fill="#FFF" d="M15.977 13L16.536 14.126 18.47 14.75 19.732 14.2 19.732 21.858 17.649 22.457 14.514 21.629 13 17.729 14.727 13.444z"/>
        <g fill="#000">
            <path d="M13 0C5.81 0 0 5.81 0 13s5.81 13 13 13 13-5.81 13-13S20.19 0 13 0zm0 24.375c-6.255 0-11.375-5.12-11.375-11.375S6.745 1.625 13 1.625 24.375 6.745 24.375 13 19.297 24.375 13 24.375z" transform="translate(14 13)"/>
            <path d="M13.732 8.938H9.466l3.291-3.292-1.138-1.138L6.378 9.75l5.646 5.646 1.138-1.138-3.696-3.696h4.266c2.234 0 4.062 1.828 4.062 4.063 0 2.234-1.828 4.062-4.062 4.062h-1.138v1.625h1.138c3.127 0 5.687-2.56 5.687-5.687 0-3.128-2.56-5.688-5.687-5.688z" transform="translate(14 13)"/>
        </g>
    </g>
</svg>
