<svg xmlns="http://www.w3.org/2000/svg" width="28" height="28" viewBox="0 0 28 28">
    <g fill="none" fill-rule="evenodd">
        <path d="M0 0H28V28H0z"/>
        <g fill="#E85440">
            <path d="M19.531 3.747c-.249-.076-.52.02-.663.237l-.444.667C16.579 1.865 13.414.099 10 .099 5.847.099 2.058 2.71.572 6.596c-.309.805.095 1.707.9 2.015.806.307 1.707-.096 2.016-.9C4.515 5.024 7.132 3.22 10 3.22c2.344 0 4.519 1.205 5.796 3.111l-.712.11c-.258.04-.459.246-.494.505-.035.259.105.51.342.617l4.162 1.872.01.004c.075.034.155.054.242.054.265 0 .486-.18.551-.423.018-.055.03-.112.03-.17l.022-4.586c.002-.261-.168-.492-.418-.567zM18.528 11.797c-.806-.309-1.706.096-2.014.902-1.027 2.685-3.645 4.49-6.513 4.49-2.345 0-4.52-1.205-5.797-3.112l.712-.11c.258-.04.459-.245.494-.505.035-.258-.105-.51-.342-.617L.906 10.973l-.012-.004c-.073-.034-.153-.054-.24-.054-.264 0-.485.181-.551.424-.017.054-.029.111-.029.169l-.023 4.586c-.002.262.169.493.418.567.25.076.52-.02.664-.238l.444-.668C3.422 18.542 6.587 20.31 10 20.31c4.153 0 7.941-2.611 9.428-6.498.307-.804-.096-1.706-.9-2.014z" transform="translate(4 3)"/>
        </g>
    </g>
</svg>
