<svg xmlns="http://www.w3.org/2000/svg" width="36" height="36" viewBox="0 0 36 36">
    <g fill="none" fill-rule="evenodd">
        <path d="M0 0H36V36H0z"/>
        <path fill="#E75540" d="M28.2 25.144h-6.819V23.29h7.115c.185 0 .37-.075.556-.189l5.558-4.124c.408-.303.518-.908.223-1.325-.297-.417-.889-.53-1.297-.228l-5.337 3.974h-6.818v-1.854l7.115-.001c.223 0 .408-.076.556-.19l5.558-4.502c.409-.34.482-.908.148-1.325-.333-.417-.889-.492-1.297-.15l-5.298 4.275H21.38v-1.854h7.115c.223 0 .444-.076.63-.265l5.558-5.26c.297-.264.37-.681.223-1.021-.15-.342-.482-.606-.853-.606H27.31v-.039c-.147-.378-.482-.606-.852-.606h-9.932c-.223 0-.444.075-.63.265l-.408.417H8.485c-.223 0-.444.075-.63.264l-5.558 5.26c-.297.265-.37.682-.223 1.022.149.341.482.53.852.53h6.67v1.854l-6.67.002c-.518 0-.926.417-.926.946 0 .53.408.946.926.946h6.67v1.854h-6.67c-.518 0-.926.417-.926.946 0 .53.408.946.926.946h6.67v1.854l-6.67.002c-.518 0-.926.417-.926.946 0 .53.408.946.926.946h25.57c.185 0 .37-.038.518-.15l5.559-3.747c.444-.303.555-.87.259-1.325-.296-.38-.851-.493-1.296-.229L28.2 25.144zm-.075-11.278h-5.559l3.558-3.368h5.559l-3.558 3.368zm-19.27-3.33h4.632L9.93 13.904H5.297l3.558-3.368zm2.594 4.465l5.447-5.148h7.188l-4.26 4.05c-.185.19-.296.418-.296.682v10.522h-8.08l.001-10.106z"/>
        <text fill="#1E3F06" font-family="THSarabunNew-Bold, TH Sarabun New" font-size="16.009" font-weight="bold">
            <tspan x="13" y="23">฿</tspan>
        </text>
    </g>
</svg>
