<svg xmlns="http://www.w3.org/2000/svg" width="30" height="30" viewBox="0 0 30 30">
    <g fill="none" fill-rule="evenodd">
        <g>
            <g>
                <g>
                    <path fill="#F44336" d="M10.833 0.169L13.018 2.608 16.165 1.593 16.877 4.79 20.074 5.501 19.059 8.648 21.497 10.833 19.059 13.018 20.074 16.165 16.877 16.877 16.165 20.074 13.018 19.059 10.833 21.497 8.648 19.059 5.501 20.074 4.79 16.877 1.593 16.165 2.608 13.018 0.169 10.833 2.608 8.648 1.593 5.501 4.79 4.79 5.501 1.593 8.648 2.608z" transform="translate(-10 -536) translate(10 536) translate(4.167 4.167)"/>
                    <path fill="#FFF" d="M8.802 15.05L7.94 14.542 12.865 6.617 13.727 7.125zM8.294 5.755c-.915 0-2.031.558-2.031 2.031v.508c0 .916.558 2.032 2.031 2.032 1.066 0 2.032-.712 2.032-2.032v-.508c0-1.27-.862-2.03-2.032-2.03zm.916 2.54c0 .66-.355 1.015-.916 1.015-.457 0-.915-.304-.915-1.016v-.508c0-.711.458-1.065.915-1.065.712 0 .916.66.916 1.065v.508zM13.372 15.911c.916 0 2.032-.557 2.032-2.03v-.509c0-.915-.558-2.03-2.032-2.03-1.065 0-2.03.71-2.03 2.03v.508c0 1.27.861 2.031 2.03 2.031zm-.915-2.539c0-.661.355-1.015.915-1.015.458 0 .916.304.916 1.015v.508c0 .712-.458 1.066-.916 1.066-.711 0-.915-.66-.915-1.066v-.508z" transform="translate(-10 -536) translate(10 536) translate(4.167 4.167)"/>
                </g>
            </g>
        </g>
    </g>
</svg>
