<svg xmlns="http://www.w3.org/2000/svg" width="54" height="54" viewBox="0 0 54 54">
    <g fill="none" fill-rule="evenodd">
        <rect width="54" height="54" fill="#FFF" rx="16"/>
        <path fill="#FFF" d="M15.977 13L16.536 14.126 18.47 14.75 19.732 14.2 19.732 21.858 17.649 22.457 14.514 21.629 13 17.729 14.727 13.444z"/>
        <path fill="#000" d="M27.978 11c-.092.005-.175.025-.246.045l-14.286 5.69c-.263.107-.449.383-.446.667v19.202c.001.28.186.55.446.655l14.286 5.69c.17.068.366.068.536 0l14.286-5.69c.26-.105.445-.375.446-.655V17.402c.003-.284-.183-.56-.446-.667l-14.286-5.69c-.1-.039-.198-.048-.29-.044zM28 12.48l12.355 4.923-4.531 1.8-11.663-5.19L28 12.48zm-7.009 2.789l12.043 5.045-5.034 2-12.355-4.911 5.346-2.134zm-6.562 3.178l12.857 5.123v17.657l-12.857-5.111V18.446zm27.142 0v17.669l-12.857 5.112V23.569l5-1.989v5.423l2.857-1.067v-5.5l5-1.99z"/>
    </g>
</svg>
