<?xml version="1.0" encoding="UTF-8"?>
<svg width="28px" height="28px" viewBox="0 0 28 28" version="1.1" xmlns="http://www.w3.org/2000/svg" xmlns:xlink="http://www.w3.org/1999/xlink">
    <!-- Generator: sketchtool 63.1 (101010) - https://sketch.com -->
    <title>0F62EACF-B3BA-413C-BA1C-13E388FB749A</title>
    <desc>Created with sketchtool.</desc>
    <g id="Page1" stroke="none" stroke-width="1" fill="none" fill-rule="evenodd">
        <g id="Home" transform="translate(-236.000000, -492.000000)">
            <g id="icon/color/next" transform="translate(236.000000, 492.000000)">
                <rect id="Rectangle" x="0" y="0" width="28" height="28"></rect>
                <path d="M16.6331974,5.61321504 C15.8289329,4.79559499 14.4880948,4.79559499 13.6838304,5.61321504 C12.8795659,6.43083509 12.8795659,7.79393907 13.6838304,8.61155912 L16.9021397,11.8833116 L6.08574808,11.8833116 C4.92416518,11.8833116 4,12.8228234 4,14.0036955 C4,15.1845676 4.92416518,16.1240795 6.08574808,16.1240795 L16.9310422,16.1240795 L13.6838304,19.3958319 C12.8795659,20.213452 12.8795659,21.576556 13.6838304,22.394176 C14.1005033,22.8177681 14.6370769,23 15.1433773,23 C15.6496778,23 16.2165245,22.7881979 16.6029242,22.394176 L23.3968017,15.5183767 C24.2010661,14.7007566 24.2010661,13.3376526 23.3968017,12.5200326 L16.6331974,5.61321504 Z" id="Fill-1" fill="#E85440"></path>
            </g>
        </g>
    </g>
</svg>