<svg xmlns="http://www.w3.org/2000/svg" width="28.766" height="35" viewBox="0 0 28.766 35">
  <g id="trash" transform="translate(-183.276 -225.82)">
    <g id="Icon_feather-trash-2" data-name="Icon feather-trash-2">
      <path id="Path_920" data-name="Path 920" d="M207.936,237.82v19a3,3,0,0,1-3,3h-15a3,3,0,0,1-3-3v-19m4.5-6v-2a3,3,0,0,1,3-3h6a3,3,0,0,1,3,3v1.531" fill="none" stroke="#000" stroke-linecap="round" stroke-linejoin="round" stroke-width="2"/>
      <path id="Path_921" data-name="Path 921" d="M193.436,243.468v11.064" fill="none" stroke="#000" stroke-linecap="round" stroke-linejoin="round" stroke-width="2"/>
      <path id="Path_921-2" data-name="Path 921" d="M200.7,243.468v11.064" fill="none" stroke="#000" stroke-linecap="round" stroke-linejoin="round" stroke-width="2"/>
      <path id="Path_929" data-name="Path 929" d="M209.042,238.82H186.276a3,3,0,0,1-3-3v-2a3,3,0,0,1,3-3h22.766a3,3,0,0,1,3,3v2A3,3,0,0,1,209.042,238.82Zm-22.766-6a1,1,0,0,0-1,1v2a1,1,0,0,0,1,1h22.766a1,1,0,0,0,1-1v-2a1,1,0,0,0-1-1Z"/>
    </g>
  </g>
</svg>
