<svg xmlns="http://www.w3.org/2000/svg" width="33.394" height="33.191" viewBox="0 0 33.394 33.191">
  <g id="Edit" transform="translate(-236.075 -227.766)">
    <g id="edit-2" data-name="edit">
      <g id="Group_51" data-name="Group 51">
        <path id="Path_926" data-name="Path 926" d="M268.79,232.266l-3.843-3.822a2.328,2.328,0,0,0-3.274-.01v.01l-15.066,15.025a.874.874,0,0,0-.224.385l-1.931,7.857a.826.826,0,0,0,.61,1,.813.813,0,0,0,.386,0l7.879-1.926a.846.846,0,0,0,.4-.223L268.79,235.53A2.3,2.3,0,0,0,268.79,232.266Zm-20.211,17.985-2.2.537.539-2.19.722-2.93,3.863,3.863Zm4.555-1.44-4.778-4.765,12.331-12.3,4.778,4.765Zm14.487-14.446-.956.952-4.778-4.764.956-.953a.669.669,0,0,1,.935,0l3.843,3.832A.657.657,0,0,1,267.621,234.365Z"/>
      </g>
    </g>
    <g id="Rectangle_1542" data-name="Rectangle 1542">
      <g id="Group_54" data-name="Group 54">
        <path id="Path_927" data-name="Path 927" d="M244.034,248.429l.539-2.19.722-2.93,3.863,3.863-2.928.72Z" fill="none"/>
      </g>
      <g id="Group_55" data-name="Group 55">
        <path id="Path_928" data-name="Path 928" d="M264.54,255.888a3.048,3.048,0,0,1-3.05,3.041H241.158a3.048,3.048,0,0,1-3.05-3.041V235.622a3.048,3.048,0,0,1,3.05-3.042h11.65l2.034-2.027H241.158a5.311,5.311,0,0,0-1.515.223,5.227,5.227,0,0,0-1.332.638,5.1,5.1,0,0,0-2.236,4.208v20.266a5.039,5.039,0,0,0,1.484,3.578,5.331,5.331,0,0,0,1.179.882c.143.071.285.142.437.213a6.115,6.115,0,0,0,.956.294,4.97,4.97,0,0,0,1.027.1H261.49a4.964,4.964,0,0,0,1.027-.1,6.083,6.083,0,0,0,.956-.294c.152-.071.3-.142.437-.213a5.308,5.308,0,0,0,1.179-.882,5.04,5.04,0,0,0,1.485-3.578V242.4l-2.034,2.028Z"/>
      </g>
    </g>
  </g>
</svg>
