<svg xmlns="http://www.w3.org/2000/svg" width="36" height="36" viewBox="0 0 36 36">
    <g fill="none" fill-rule="evenodd">
        <path d="M0 0H36V36H0z"/>
        <g transform="translate(6.3 1.8)">
            <path fill="#FFF" stroke="#3C566F" stroke-width="1.95" d="M11.7 8.775c-3.124 0-5.935 1.335-7.896 3.466C2.048 14.151.975 16.701.975 19.5c0 2.962 1.2 5.643 3.141 7.584 1.941 1.94 4.622 3.141 7.584 3.141 2.962 0 5.643-1.2 7.584-3.141 1.94-1.941 3.141-4.622 3.141-7.584 0-2.8-1.073-5.349-2.83-7.259-1.96-2.13-4.771-3.466-7.895-3.466z"/>
            <circle cx="11.7" cy="2.925" r="2.438" stroke="#3C566F" stroke-width=".975"/>
            <rect width="4.875" height="2.925" x="1.95" y="6.825" fill="#FFF" rx="1.462" transform="rotate(-33 4.388 8.288)"/>
            <rect width="4.875" height="2.925" x="16.575" y="6.825" fill="#1ECE6D" rx="1.462" transform="scale(-1 1) rotate(-33 0 72.473)"/>
            <path fill="#1ECE6D" d="M11.7 11.7c.538 0 .975.435.975.973l-.001 6.195 3.337 1.349c.469.189.715.69.585 1.164l-.037.109c-.202.499-.763.743-1.278.535l-3.703-1.496c-.072-.03-.139-.066-.2-.109-.384-.136-.653-.495-.653-.918v-6.83c0-.498.373-.91.86-.965l.115-.007z"/>
        </g>
    </g>
</svg>
