<svg xmlns="http://www.w3.org/2000/svg" width="27.5" height="29.333" viewBox="0 0 27.5 29.333">
  <path id="notification" d="M29.5,24.292a3.677,3.677,0,0,1-3.667-3.667V12.833A10.146,10.146,0,0,0,18.5,3.117V2.75a2.75,2.75,0,0,0-5.5,0v.367a10.146,10.146,0,0,0-7.333,9.717v7.792A3.677,3.677,0,0,1,2,24.292v1.833h9.717a4.139,4.139,0,0,0,8.067,0H29.5ZM14.833,2.75a.917.917,0,0,1,1.833,0V2.8a6.143,6.143,0,0,0-.917-.046ZM15.75,27.5a2.316,2.316,0,0,1-2.108-1.375h4.217A2.316,2.316,0,0,1,15.75,27.5ZM6.079,24.292A5.454,5.454,0,0,0,7.5,20.625V12.833a8.25,8.25,0,0,1,16.5,0v7.792a5.454,5.454,0,0,0,1.421,3.667Z" transform="translate(-2)"/>
</svg>
