<svg xmlns="http://www.w3.org/2000/svg" width="54" height="54" viewBox="0 0 54 54">
    <g fill="none" fill-rule="evenodd">
        <rect width="54" height="54" fill="#FFF" rx="16"/>
        <path fill="#FFF" d="M15.977 13L16.536 14.126 18.47 14.75 19.732 14.2 19.732 21.858 17.649 22.457 14.514 21.629 13 17.729 14.727 13.444z"/>
        <g fill="#000">
            <path d="M5.183 6.882c1.218 0 2.21-.991 2.21-2.21 0-1.215-.992-2.205-2.21-2.205-1.216 0-2.204.989-2.204 2.206-.002 1.217.988 2.21 2.204 2.21zm0-3.523c.726 0 1.317.589 1.317 1.313 0 .726-.59 1.317-1.317 1.317-.724 0-1.312-.591-1.312-1.317 0-.724.588-1.313 1.312-1.313zM10.989 5.12h11.123c.246 0 .447-.2.447-.446s-.2-.447-.447-.447H10.989c-.247 0-.447.2-.447.447s.199.447.447.447zM5.183 10.765c-1.216 0-2.204.99-2.204 2.206 0 1.218.988 2.21 2.204 2.21 1.218 0 2.21-.992 2.21-2.21 0-1.216-.992-2.206-2.21-2.206zm0 3.522c-.724 0-1.312-.59-1.312-1.317 0-.724.588-1.312 1.312-1.312.726 0 1.317.588 1.317 1.312 0 .726-.59 1.317-1.317 1.317zM22.558 12.974c0-.247-.2-.447-.447-.447H10.989c-.247 0-.447.2-.447.447 0 .246.2.447.447.447h11.123c.247-.002.446-.2.446-.447z" transform="translate(13 16)"/>
            <path stroke="#000" stroke-width=".5" d="M25.267 14.302V9.716c0-.345-.134-.656-.348-.893.215-.238.348-.549.348-.893V1.417c0-.738-.6-1.339-1.339-1.339H1.608c-.74 0-1.34.6-1.34 1.34V7.93c0 .344.135.655.35.893-.217.237-.35.548-.35.894v6.514c0 .738.6 1.339 1.338 1.339h18.401c-.195.534-.307 1.11-.307 1.711 0 2.766 2.25 5.016 5.015 5.016 2.767 0 5.018-2.25 5.018-5.016 0-2.577-1.958-4.703-4.466-4.98h0zM1.161 1.418c0-.247.2-.447.446-.447H23.93c.247 0 .447.2.447.447V7.93c0 .247-.2.447-.447.447H1.607c-.246 0-.446-.2-.446-.447V1.418zm.446 15.258c-.246 0-.446-.2-.446-.447V9.716c0-.247.2-.447.446-.447l.004-.001h22.317c.247 0 .447.201.447.448v4.571c-1.667.114-3.11 1.042-3.936 2.39H1.607zm23.11 6.729c-2.273 0-4.124-1.85-4.124-4.124 0-2.27 1.85-4.118 4.123-4.118s4.123 1.848 4.123 4.118c0 2.274-1.85 4.124-4.123 4.124z" transform="translate(13 16)"/>
            <path d="M26.976 17.023c-.174-.175-.456-.175-.63 0l-1.63 1.628-1.628-1.628c-.174-.175-.456-.175-.63 0-.175.174-.175.456 0 .63l1.628 1.63-1.629 1.628c-.174.174-.174.456 0 .63.087.087.202.131.316.131.115 0 .229-.044.317-.13l1.628-1.629 1.628 1.629c.087.086.202.13.317.13.114 0 .228-.044.316-.13.174-.175.174-.457 0-.631l-1.629-1.629 1.629-1.628c.172-.173.172-.457-.003-.631z" transform="translate(13 16)"/>
        </g>
    </g>
</svg>
