<svg xmlns="http://www.w3.org/2000/svg" width="54" height="54" viewBox="0 0 54 54">
    <g fill="none" fill-rule="evenodd">
        <rect width="54" height="54" fill="#FFF" rx="16"/>
        <path fill="#FFF" d="M15.977 13L16.536 14.126 18.47 14.75 19.732 14.2 19.732 21.858 17.649 22.457 14.514 21.629 13 17.729 14.727 13.444z"/>
        <g fill="#000">
            <path d="M22.253 5.962c-.369 0-.667.299-.667.667v3.246-.001c0 .368.298.666.667.666h4.583c.25 0 .478-.139.592-.36.115-.222.095-.488-.049-.692L25.07 6.242c-.125-.175-.326-.28-.543-.28h-2.274zm.666 1.334h1.265l1.36 1.912H22.92V7.296z" transform="translate(13 17)"/>
            <path d="M2.45.043C1.286.043.33 1 .33 2.162v11.57c0 1.163.958 2.118 2.12 2.118h2.067c.353 1.252 1.51 2.179 2.871 2.179 1.362 0 2.518-.926 2.871-2.179h11.657c.352 1.253 1.51 2.179 2.87 2.179 1.361 0 2.518-.926 2.872-2.179h.267c.955 0 1.74-.787 1.74-1.74V9.89c.011-.096.003-.192-.025-.283l-.015-.04v-.003c-.03-.085-.077-.162-.138-.228L25.93 4.397c-.125-.173-.327-.276-.54-.276l-4.316-.002V2.162c0-1.163-.957-2.119-2.118-2.119H2.449zm0 1.333h16.503c.438 0 .785.35.785.786v12.355h-9.416c-.251-1.39-1.477-2.456-2.935-2.456s-2.682 1.065-2.935 2.456H2.448c-.437 0-.785-.35-.785-.785V2.162c0-.438.349-.786.785-.786h.001zm18.622 4.076l3.974.003 3.285 4.557v4.098c0 .225-.18.407-.408.407h-.203c-.251-1.39-1.476-2.456-2.935-2.456-1.458 0-2.682 1.066-2.935 2.456h-.778V5.452zM7.387 13.395c.918 0 1.648.73 1.648 1.652v.036c-.02.9-.742 1.614-1.648 1.614-.918 0-1.646-.728-1.649-1.642v-.005c0-.922.732-1.653 1.649-1.653v-.002zm17.397 0c.918 0 1.648.73 1.648 1.652 0 .918-.732 1.648-1.648 1.648-.918 0-1.649-.731-1.649-1.648 0-.922.732-1.652 1.649-1.652z" transform="translate(13 17)"/>
            <path d="M11.168 4.714c-.178-.003-.35.067-.477.192-.126.125-.197.296-.197.474 0 .179.071.35.197.474.127.127.299.196.477.193h6.538c.178.003.35-.066.476-.193.128-.125.198-.295.198-.474 0-.178-.07-.349-.198-.474-.126-.125-.298-.195-.476-.192h-6.538zM8.177 7.706c-.178-.003-.35.066-.477.191s-.197.297-.197.475c0 .177.07.35.197.474.127.125.299.194.477.192h9.529c.178.002.35-.067.476-.192.128-.125.198-.297.198-.474 0-.178-.07-.35-.198-.475-.126-.125-.298-.194-.476-.191H8.177zM1.987 18.624c-.177-.003-.349.066-.477.191-.126.125-.197.297-.197.475 0 .177.071.35.197.474.128.125.3.194.477.192h25.324c.179.002.35-.067.477-.192.128-.125.198-.297.198-.474 0-.178-.07-.35-.198-.475-.126-.125-.298-.194-.477-.191H1.987z" transform="translate(13 17)"/>
        </g>
    </g>
</svg>
